<svg width="123" height="21" viewBox="0 0 123 21" fill="none" xmlns="http://www.w3.org/2000/svg">
<path d="M9.3741 0.243042L11.4313 7.21422H18.0887L12.7028 11.5226L14.76 18.4938L9.3741 14.1854L3.9882 18.4938L6.04543 11.5226L0.659531 7.21422H7.31687L9.3741 0.243042Z" fill="#FFAF37"/>
<path d="M35.4536 0.243042L37.5108 7.21422H44.1681L38.7822 11.5226L40.8395 18.4938L35.4536 14.1854L30.0677 18.4938L32.1249 11.5226L26.739 7.21422H33.3963L35.4536 0.243042Z" fill="#FFAF37"/>
<path d="M61.5329 0.243042L63.5901 7.21422H70.2475L64.8616 11.5226L66.9188 18.4938L61.5329 14.1854L56.147 18.4938L58.2042 11.5226L52.8183 7.21422H59.4757L61.5329 0.243042Z" fill="#FFAF37"/>
<path d="M87.6125 0.243042L89.6697 7.21422H96.3271L90.9412 11.5226L92.9984 18.4938L87.6125 14.1854L82.2266 18.4938L84.2838 11.5226L78.8979 7.21422H85.5553L87.6125 0.243042Z" fill="#FFAF37"/>
<path d="M113.692 0.243042L115.749 7.21422H122.406L117.021 11.5226L119.078 18.4938L113.692 14.1854L108.306 18.4938L110.363 11.5226L104.977 7.21422H111.635L113.692 0.243042Z" fill="#FFAF37"/>
</svg>
